<svg xmlns="http://www.w3.org/2000/svg" width="178" height="157"><g fill="none" fill-rule="evenodd"><path fill="#F2F4F8" d="M155.085 78.372c0 42.89-34.717 77.66-77.542 77.66C34.717 156.031 0 121.261 0 78.371 0 35.482 34.717.712 77.543.712c42.825 0 77.542 34.77 77.542 77.66"/><path fill="#EAEDF4" d="M141.802 121.85c-14.203-5.323-33.858-8.618-55.577-8.618-29.263 0-54.779 5.982-68.259 14.845 14.224 17.082 35.632 27.955 59.577 27.955 26.74 0 50.319-13.557 64.26-34.182"/><path fill="#D2D7E1" d="M107.78 76.18c-2.077.704-4.249.153-5.056-.729-.656-.719-1.002-1.67-1.022-2.643l-.41-20.37s-.075-3.735 2.585-5.45c3.066-2.138 7.036-.557 7.498 1.786 0 0 .365 20.978.26 21.393.198 1.364-.802 4.98-3.854 6.014zm-19.756 9.651c-2.079.704-4.251.153-5.057-.73-.657-.717-1.003-1.668-1.023-2.642l-.41-20.37s-.075-3.734 2.585-5.449c3.067-2.137 7.036-.558 7.498 1.786 0 0 .366 20.978.26 21.393.199 1.364-.802 4.98-3.853 6.012zm-20.518 11.85c-2.078.705-4.25.155-5.057-.726-.658-.719-1.004-1.668-1.025-2.642l-.426-20.37s-.077-3.734 2.581-5.45c3.065-2.141 7.036-.564 7.5 1.78 0 0 .381 20.977.277 21.391.198 1.364-.8 4.981-3.85 6.016zM37.178 69.63l7.046 50.227s6.632 9.756 12.227 5.812c5.596-3.944 61.55-51.473 61.55-51.473l6.632-51.68L37.178 69.63z"/><path fill="#DCE1EC" d="M165.615 102.443l7.097-54.399-51.81-25.528v3.32l-2.9 48.36 30.05 26.151z"/><path fill="#D2D7E1" d="M161.314 99.517l-43.313-25.321-75.046 41.886 13.814 16.614 23.307 8.124 14.922 2.283 54.503-28.227z"/><path fill="#F2F4F8" d="M154.682 105.536c-2.091.662-4.252.067-5.04-.832-.643-.73-.97-1.688-.97-2.663V81.668s0-3.736 2.695-5.397c3.108-2.075 7.046-.415 7.46 1.938 0 0-.056 20.981-.17 21.392.17 1.369-.903 4.964-3.975 5.935zm-22.174 13.283c-2.092.662-4.252.067-5.041-.832-.642-.73-.969-1.688-.969-2.662V94.95s0-3.736 2.694-5.396c3.109-2.076 7.046-.416 7.46 1.937 0 0-.056 20.981-.17 21.393.17 1.369-.902 4.963-3.974 5.934zm-22.175 11.001c-2.091.661-4.252.066-5.04-.832-.643-.732-.97-1.689-.97-2.663V105.95s0-3.735 2.695-5.396c3.108-2.075 7.046-.415 7.46 1.937 0 0-.056 20.981-.17 21.392.17 1.369-.903 4.964-3.975 5.936zm31.5-58.115L88.78 101.177 34.07 70.46l-1.866 1.66 9.74 48.775s.622 3.735 3.938 6.02c3.316 2.282 38.34 22.414 38.34 22.414s4.766 2.49 11.19-1.038c6.424-3.528 69.84-40.265 69.84-40.265s4.766-2.282 5.388-8.509c.621-6.226 6.01-47.53 6.01-47.53l-34.816 19.718z"/><path fill="#DDE1EB" d="M32.204 72.12l9.74 48.774s.622 3.737 3.938 6.02c3.138 2.16 34.656 20.297 38.044 22.246a5.634 5.634 0 002.113-.867c1.745-1.153 2.741-3.154 2.741-5.248v-41.868L34.07 70.46l-1.866 1.66z"/><path fill="#E2E6EF" d="M37.593 72.535l82.895-46.698L169.81 53.44l5.596-5.397-52.64-29.887s-3.522-1.453-10.154 2.698c-6.631 4.152-79.165 44.624-79.165 44.624v4.981l4.145 2.075z"/><path fill="#C8CDD8" d="M88.78 20.232v23.18l-8.911 5.054v-35.29s1.244-6.227 6.217-3.736c4.974 2.49 42.899 24.699 42.899 24.699s1.657 1.452 1.45 3.943c-.207 2.49 0 39.02 0 39.02l-8.082 3.32V39.265L88.78 20.232z"/><path fill="#E2E6EF" d="M175.406 48.044c3.938 3.944 1.244 8.718 1.244 8.718l-87.87 49.343S37.8 80.422 32.68 74.507c-5.118-5.916.768-9.028.768-9.028L88.78 97.026l79.995-45.038 6.631-3.944z"/><path fill="#C8CDD8" d="M78.892 49.05l10.106-6.065a.724.724 0 011.096.622v3.962a.726.726 0 01-.358.627L79.63 54.124a.724.724 0 01-1.09-.626v-3.825c0-.255.134-.491.352-.622"/></g></svg>